<?xml version="1.0" encoding="UTF-8" standalone="no"?>
<!-- Created with Inkscape (http://www.inkscape.org/) -->

<svg
   width="303.08264mm"
   height="303.08182mm"
   viewBox="0 0 303.08264 303.08182"
   version="1.1"
   id="svg1"
   xml:space="preserve"
   inkscape:version="1.4.2 (ebf0e940d0, 2025-05-08)"
   sodipodi:docname="logo.svg"
   xmlns:inkscape="http://www.inkscape.org/namespaces/inkscape"
   xmlns:sodipodi="http://sodipodi.sourceforge.net/DTD/sodipodi-0.dtd"
   xmlns="http://www.w3.org/2000/svg"
   xmlns:svg="http://www.w3.org/2000/svg"><sodipodi:namedview
     id="namedview1"
     pagecolor="#ffffff"
     bordercolor="#000000"
     borderopacity="0.25"
     inkscape:showpageshadow="2"
     inkscape:pageopacity="0.0"
     inkscape:pagecheckerboard="0"
     inkscape:deskcolor="#d1d1d1"
     inkscape:document-units="mm"
     inkscape:zoom="0.47748556"
     inkscape:cx="913.11662"
     inkscape:cy="636.66847"
     inkscape:window-width="1920"
     inkscape:window-height="1011"
     inkscape:window-x="0"
     inkscape:window-y="0"
     inkscape:window-maximized="1"
     inkscape:current-layer="layer1" /><defs
     id="defs1" /><g
     inkscape:label="Layer 1"
     inkscape:groupmode="layer"
     id="layer1"
     transform="translate(52.148402,2.2227273)"><path
       style="fill:#000000"
       d="m 50.451814,272.06362 c -27.50325,-0.0703 -29.047767,-0.099 -28.911134,-0.53615 0.07939,-0.25402 0.745323,-2.66451 1.479854,-5.35664 1.898986,-6.96 5.557631,-19.27412 7.695656,-25.90174 3.751284,-11.62853 6.283279,-18.00321 10.309845,-25.95659 2.685242,-5.30397 4.995621,-8.91869 7.226059,-11.30559 l 1.553133,-1.66208 -0.428654,-1.70648 c -0.571372,-2.27464 -0.544825,-2.75563 0.232805,-4.21815 0.363802,-0.68422 0.661458,-1.33352 0.661458,-1.44288 0,-0.10937 -0.635106,-1.2044 -1.411347,-2.4334 -1.562702,-2.47419 -2.028236,-3.60115 -2.028236,-4.90994 0,-1.41601 0.996757,-3.67964 2.138177,-4.8558 0.962961,-0.99226 1.040943,-1.17616 0.878044,-2.07056 -0.09833,-0.53987 -0.561225,-1.75549 -1.028662,-2.70137 -0.909263,-1.83995 -2.935808,-7.32093 -3.205583,-8.66981 -0.09936,-0.49681 -0.01364,-1.10828 0.219142,-1.5632 2.482364,-4.8512 3.189115,-6.34357 3.780219,-7.98224 1.174064,-3.25478 0.684466,-3.03347 -1.983614,0.89666 -3.431949,5.05531 -7.325754,8.96325 -12.042514,12.08622 -3.355711,2.22182 -8.328436,5.039 -10.186458,5.7709 -0.509323,0.20063 -1.878542,0.97918 -3.042708,1.7301 -1.164167,0.75093 -4.497917,2.57876 -7.408333,4.06186 -6.1160522,3.11663 -7.8084764,3.5986 -11.0560135,3.14856 -2.2096338,-0.30621 -4.9741357,-1.29437 -6.1674156,-2.20453 -1.0443538,-0.79657 -1.9029338,-2.14507 -2.1240752,-3.33612 -0.091467,-0.49263 -0.9129654,-2.56257 -1.8255523,-4.59986 -4.2203494,-9.42166 -5.0826464,-14.09938 -4.7871424,-25.9689 l 0.172253,-6.9189 -1.689382,-1.20552 c -2.94865,-2.10411 -5.198712,-5.01995 -5.198712,-6.73698 0,-1.24403 1.246913,-3.35147 4.81625,-8.14005 l 3.3610423,-4.50914 -0.5167713,-1.66039 c -0.90483,-2.90722 -0.634787,-5.80188 0.7103931,-7.61486 0.3437052,-0.46323 0.6249185,-1.21003 0.6249185,-1.65956 0,-0.5807 0.2971648,-1.14114 1.0264596,-1.93588 0.7429914,-0.80966 1.0768256,-1.44737 1.2088386,-2.30919 0.4334977,-2.83 1.8127833,-5.50667 3.1520206,-6.11687 0.3341789,-0.15226 0.7486064,-0.66679 0.92095,-1.1434 0.4387171,-1.213246 2.72846355,-3.518457 4.095512,-4.123167 0.6375392,-0.282014 1.2754109,-0.791595 1.4382475,-1.148982 0.1609364,-0.353217 0.7250979,-0.972086 1.2536923,-1.375265 0.807899,-0.616215 1.3187084,-0.761456 3.2048825,-0.911265 1.9635798,-0.155957 2.2997787,-0.257811 2.6920213,-0.81557 1.03833,-1.476481 8.596113,-13.085019 8.706735,-13.373296 0.06745,-0.175777 -2.679021,-2.424572 -6.216073,-5.089683 C 9.2667372,70.961801 6.1028159,68.442 5.7211061,67.988363 4.9181934,67.034156 4.8321777,65.973404 5.4579929,64.743636 5.8897711,63.895163 12.634737,54.186222 14.08796,52.321359 c 0.425247,-0.545703 1.003205,-0.992188 1.284351,-0.992188 0.725684,0 6.376875,2.082144 11.562139,4.259994 3.728601,1.56604 4.577583,1.831719 5.436171,1.701185 0.906181,-0.137769 1.191327,-0.02551 2.606497,1.026116 0.873953,0.649445 2.703193,2.205508 4.064979,3.457918 2.335653,2.148059 2.458984,2.314397 2.176195,2.935051 -0.249076,0.546663 -0.210143,0.779709 0.230193,1.377901 0.608851,0.827116 3.709829,3.206176 8.775648,6.732647 3.369976,2.345943 3.519629,2.488923 3.399287,3.247729 -0.116073,0.731892 -1.227076,2.772978 -5.32866,9.789583 -2.946231,5.040134 -4.227035,5.721911 -9.455981,5.033454 -1.703725,-0.224317 -3.373918,-0.512873 -3.711541,-0.641237 -0.337623,-0.128364 -2.146313,-1.263248 -4.019311,-2.521965 l -3.405452,-2.288576 -1.786389,2.763656 c -2.205968,3.412772 -5.307613,8.469869 -5.913414,9.641565 l -0.452089,0.874398 1.306324,1.77144 c 0.718479,0.97428 1.384559,2.13719 1.480179,2.58422 0.106838,0.49948 0.604028,1.17237 1.289804,1.74561 2.746904,2.29613 3.427467,5.64834 1.824441,8.98656 -1.761565,3.66837 -3.741087,5.68266 -6.442417,6.55556 -0.79922,0.25826 -1.094878,0.57362 -1.702917,1.81641 -0.513926,1.05043 -1.527713,2.27668 -3.362177,4.0668 l -2.626391,2.5629 0.182012,2.46939 c 0.278396,3.77705 1.731549,9.24185 2.447932,9.20581 0.114312,-0.006 1.398465,-0.89587 2.853673,-1.97804 1.455208,-1.08218 3.727912,-2.50487 5.050453,-3.16154 l 2.40462,-1.19395 0.33549,-1.52436 c 1.45066,-6.59134 4.498121,-12.72747 8.475472,-17.06557 1.91944,-2.09354 5.672524,-4.97291 8.472505,-6.50011 3.615076,-1.97179 8.988646,-3.47102 12.493641,-3.48573 1.071682,-0.004 1.330313,-0.11542 1.823075,-0.78192 1.64148,-2.22022 10.494499,-4.973879 14.05634,-4.37211 1.147826,0.19392 1.690832,-0.0825 3.57624,-1.820387 1.664385,-1.534176 3.055236,-4.603 3.617915,-7.982697 l 0.176685,-1.061251 -3.734506,-1.830018 c -2.053978,-1.00651 -3.95674,-2.112543 -4.22836,-2.457851 l -0.493853,-0.627834 2.728424,-4.153813 c 2.994714,-4.559219 5.438564,-8.706469 5.438564,-9.229325 0,-0.220979 -0.247961,-0.29069 -0.727604,-0.204557 -2.14827,0.38578 -7.086721,1.12431 -7.143446,1.06828 -0.640831,-0.632972 -1.064806,-10.125789 -0.616582,-13.805266 0.853216,-7.004054 3.244499,-13.372794 7.232286,-19.261857 4.351196,-6.425736 11.856165,-12.114495 18.992028,-14.395938 4.358813,-1.393578 6.713507,-1.711825 11.632067,-1.572125 6.93602,0.197002 11.00947,1.443149 22.55833,6.901025 l 3.11146,1.470444 -3.12467,4.049212 c -1.71856,2.227066 -3.98806,5.198943 -5.04333,6.604171 l -1.91868,2.55496 0.4093,1.546082 c 0.83811,3.165878 2.2291,6.564294 2.84873,6.95988 0.33315,0.212694 1.02917,0.818556 1.5467,1.34636 1.1854,1.208926 1.70624,2.941347 3.20525,10.661287 1.0242,5.274616 1.08392,5.801249 0.68336,6.025416 -2.30864,1.291979 -3.87085,3.405478 -3.89263,5.266291 -0.007,0.636684 -0.26557,1.240854 -0.81479,1.907151 l -0.80388,0.975247 0.28753,2.826602 c 0.32204,3.166022 0.22437,3.962551 -0.69028,5.6294 -0.34942,0.636792 -0.63532,1.577763 -0.63532,2.091046 0,0.513283 0.59888,2.716416 1.33084,4.895851 1.26213,3.758051 1.32192,4.060949 1.1582,5.867594 l -0.17262,1.90498 3.20035,2.16909 c 1.76019,1.193 3.90466,2.82117 4.7655,3.61815 1.29308,1.19716 1.81175,1.49576 2.98363,1.71767 4.34948,0.8236 8.56642,2.36466 11.23137,4.10446 2.277,1.48651 6.13099,5.45736 7.90067,8.14023 2.73015,4.13894 4.93389,10.18758 5.45583,14.97469 0.55834,5.12092 0.42123,4.67931 1.78742,5.75704 3.06955,2.42141 5.76062,6.55815 8.66449,13.3191 l 0.8523,1.98437 2.57748,1.37471 c 1.41761,0.75608 2.93269,1.70858 3.36683,2.11666 0.84481,0.79409 4.98669,6.24519 6.18774,8.14365 0.70628,1.11639 0.77121,1.15144 2.45989,1.32795 2.35762,0.24643 5.43204,1.29499 7.86926,2.6839 1.11392,0.6348 2.10946,1.15417 2.21232,1.15417 0.10286,0 1.06238,-0.73316 2.13227,-1.62925 2.27017,-1.90139 3.71111,-2.60636 4.93458,-2.41421 1.04832,0.16464 2.18185,1.41884 2.17823,2.41012 -0.004,1.07583 -1.15278,3.31548 -2.38823,4.65578 l -1.10582,1.19968 0.49154,1.22397 c 0.27036,0.67318 0.61505,1.27404 0.766,1.33523 0.15095,0.0612 2.0815,-0.54659 4.29012,-1.35065 3.28078,-1.19437 4.32135,-1.46192 5.68595,-1.46192 2.52782,0 3.6249,1.14906 2.73681,2.86644 -0.93393,1.80603 -3.10237,3.12096 -9.94462,6.03041 l -2.77812,1.18131 v 3.62603 c 0,3.3721 -0.0458,3.70599 -0.65389,4.76803 -0.77631,1.35582 -3.20078,3.40752 -5.42271,4.58895 -0.87798,0.46683 -2.19163,1.3205 -2.91924,1.89704 -1.40204,1.11095 -4.19787,2.5579 -4.9431,2.55825 -0.24486,1.2e-4 -0.51609,0.22357 -0.60274,0.49657 -0.0889,0.28013 -0.85756,0.81052 -1.7644,1.21748 -3.51805,1.57881 -8.08719,1.04358 -10.6962,-1.25295 l -1.204,-1.05981 -0.97811,0.77341 c -0.94671,0.74859 -1.45759,1.6307 -3.75157,6.47768 -1.2942,2.73453 -3.90968,5.34707 -6.74259,6.73499 l -2.10771,1.03263 2.63688,0.16736 c 1.45028,0.0921 8.88766,0.18772 16.5275,0.21261 7.63985,0.0249 16.26171,0.14184 19.15969,0.2599 6.10671,0.24877 5.97573,0.18743 5.97573,2.79833 0,1.19371 -0.17192,1.96004 -0.65641,2.926 -1.0391,2.07174 -2.85489,4.17885 -4.61252,5.35255 -2.77985,1.85631 -9.61357,4.32773 -21.41205,7.74367 -8.65727,2.50648 -11.00894,3.52796 -13.39337,5.81761 -2.21099,2.1231 -3.15531,4.13467 -3.16242,6.73655 -0.006,2.25893 0.68643,3.86897 2.28604,5.31412 1.11926,1.01118 4.6781,2.79355 8.7279,4.37117 l 2.30529,0.89805 0.2827,1.32291 c 0.45325,2.12104 0.72523,6.75745 0.40853,6.9643 -0.28039,0.18314 -75.34699,0.25314 -127.755206,0.11912 z m 69.810906,-6.8382 c 1.06126,-0.52009 2.99029,-3.07585 4.72078,-6.25454 l 0.76162,-1.39901 -2.21683,2.15678 c -2.15342,2.09509 -5.01501,4.19094 -7.31006,5.35394 -0.61847,0.3134 -1.12448,0.64223 -1.12448,0.73073 0,0.37306 4.17767,-0.10209 5.16897,-0.5879 z m 38.24465,-1.5995 c -2.96326,-1.14486 -4.97017,-1.42449 -10.15957,-1.41559 -4.12102,0.007 -10.85676,0.52501 -11.19238,0.86063 -0.0584,0.0584 3.55611,0.19041 8.03223,0.29337 4.47611,0.10296 9.26948,0.34365 10.65193,0.53488 1.38245,0.19123 2.93026,0.35556 3.43958,0.36518 0.83601,0.0158 0.76098,-0.0463 -0.77179,-0.63847 z m -55.69187,-2.04877 c 3.80943,-1.29567 5.83026,-2.80445 7.08937,-5.29305 0.81597,-1.61274 1.24525,-4.0423 0.9475,-5.36249 -0.68086,-3.01885 -4.12422,-5.01231 -9.78154,-5.66283 -2.863373,-0.32924 -8.221325,-1.57412 -10.838815,-2.5183 -4.684531,-1.6898 -10.011227,-4.56936 -14.122524,-7.63449 -2.700135,-2.01306 -2.410226,-1.33587 0.675934,1.57889 5.537407,5.22986 12.375659,8.59788 19.083909,9.39932 6.284356,0.7508 10.318466,1.80048 11.802926,3.07112 2.38819,2.0442 2.49075,4.1511 0.36021,7.39958 -1.01326,1.54493 -2.74545,2.94013 -5.63872,4.54172 -2.27166,1.25749 -2.17762,1.36464 0.42175,0.48053 z m 10.93991,-32.95318 0.0154,-1.43124 30.22136,0.18923 c 16.62175,0.10407 30.25977,0.22764 30.30671,0.27458 0.047,0.0469 0.26435,1.55835 0.48312,3.35868 0.21877,1.80032 0.49692,3.86863 0.61811,4.59623 l 0.22034,1.32292 0.0314,-1.33082 c 0.0352,-1.49237 0.78838,-7.8487 0.94899,-8.00931 0.057,-0.057 3.35639,-0.20577 7.33206,-0.3307 3.97568,-0.12492 8.65725,-0.35848 10.4035,-0.51901 3.19478,-0.2937 7.79111,-0.95266 7.98294,-1.14449 0.31323,-0.31323 -51.81336,-0.95404 -78.44528,-0.96436 l -11.46026,-0.004 0.0618,5.75468 c 0.0894,8.32868 0.23508,9.03968 0.79933,3.90261 0.25575,-2.32834 0.47193,-4.87739 0.48042,-5.66457 z m -8.71583,3.5479 v -1.19062 l -1.12448,-6e-5 c -1.02645,-4e-5 -13.22176,-1.338 -16.999474,-1.86502 -1.308588,-0.18256 -1.122646,-0.2013 1.058333,-0.10665 1.455208,0.0631 5.890286,0.19349 9.855728,0.28964 l 7.209893,0.17482 v -2.55366 -2.55366 h -8.688148 c -4.778482,0 -12.281205,0.0788 -16.672717,0.17505 l -7.984568,0.17504 0.151505,0.94944 c 0.355889,2.23026 -0.636032,1.85408 10.101442,3.8309 5.352067,0.98534 12.707594,2.24741 16.345614,2.8046 3.638022,0.55719 6.644352,1.02381 6.680732,1.03694 0.0364,0.0131 0.0661,-0.51192 0.0661,-1.16676 z m 45.64063,-12.34656 c -10.04704,-2.40486 -13.04871,-3.27286 -24.07709,-6.96241 -6.69395,-2.23947 -13.84466,-4.49211 -15.89045,-5.00587 -3.78787,-0.95125 -13.88248,-2.88323 -16.521003,-3.1619 l -1.455208,-0.1537 1.190625,0.54036 c 0.654843,0.29719 9.644066,3.34067 19.976036,6.76328 10.33198,3.42261 18.99713,6.30067 19.25589,6.3957 0.25875,0.095 -1.34859,0.13101 -3.57188,0.08 -4.81303,-0.11049 -36.464294,0.46862 -39.496505,0.72266 -2.11319,0.17704 -2.110147,0.1777 1.852084,0.40678 10.138381,0.58615 60.975511,0.91083 58.737501,0.37513 z m 6.47431,-3.41329 c 0.9415,-0.15275 2.30788,-0.59834 3.03641,-0.99019 2.73926,-1.47337 5.34325,-4.84403 6.32478,-8.18694 0.50876,-1.73275 0.36826,-1.75929 -2.28221,-0.43115 -3.81402,1.91119 -7.39045,4.50039 -11.96579,8.66278 l -1.32292,1.20351 2.24896,0.01 c 1.23692,0.005 3.01927,-0.11512 3.96077,-0.26787 z m -10.4728,-2.48503 c 1.035,-0.78029 2.77479,-2.17063 3.86619,-3.08964 3.73003,-3.14084 8.82288,-6.81033 12.28388,-8.85077 1.90236,-1.12153 3.73606,-2.20915 4.07489,-2.41694 0.33884,-0.20778 0.55597,-0.5344 0.48251,-0.72582 -0.0735,-0.19142 -0.21829,-2.31093 -0.32186,-4.71001 l -0.1883,-4.36197 -1.74292,-0.17857 c -2.1842,-0.22378 -5.3449,-1.26762 -6.95539,-2.29707 -3.31485,-2.11889 -6.62767,-7.1458 -7.91122,-12.00453 -0.56803,-2.15024 -0.5909,-2.18539 -1.8021,-2.77038 -3.47139,-1.6766 -5.43867,-3.10502 -8.10549,-5.88529 l -2.71415,-2.82962 -0.46206,1.90106 c -1.54653,6.36303 -5.77356,15.88327 -8.36037,18.82948 l -0.73656,0.8389 0.69316,1.83448 c 0.56176,1.48674 0.69681,2.31097 0.71239,4.34803 0.0218,2.85393 -0.44573,4.10946 -2.0197,5.42353 -0.47932,0.40017 -0.96298,0.88473 -1.07479,1.07679 -0.11883,0.20413 0.19727,1.31685 0.7609,2.67843 0.88984,2.14963 0.9523,2.47209 0.81008,4.18201 l -0.15411,1.85278 1.86225,1.58309 c 1.02424,0.87069 2.90777,2.67096 4.18562,4.0006 l 2.32336,2.41751 3.1451,0.71404 c 1.7298,0.39272 3.26416,0.75184 3.40968,0.79804 0.37197,0.11811 1.74373,-0.70311 3.93901,-2.35816 z m -8.00395,-5.69991 c -1.06383,-1.52797 -2.20668,-3.31391 -2.53967,-3.96875 -0.73697,-1.44931 -2.60934,-6.61696 -2.45383,-6.77246 0.25046,-0.25047 2.54024,2.98872 4.08547,5.77943 1.78206,3.21843 3.09742,6.46083 2.94037,7.2481 -0.0697,0.34961 -0.65733,-0.31141 -2.03234,-2.28632 z m 6.09851,-2.43726 c -1.07968,-4.32404 -3.30989,-22.92107 -2.66631,-22.23351 0.10133,0.10825 0.55337,1.32791 1.00454,2.71035 2.0537,6.2928 2.95684,12.90115 2.42778,17.76434 -0.16185,1.48775 -0.33667,2.7474 -0.38849,2.79922 -0.0518,0.0518 -0.2217,-0.41636 -0.37752,-1.0404 z m 6.82997,-1.69973 c 0,-0.44066 0.46678,-2.10112 1.0373,-3.68992 1.13869,-3.17106 2.78464,-6.78497 2.52906,-5.55289 -0.0885,0.42647 -0.26938,1.72693 -0.40202,2.88992 -0.33954,2.97703 -1.12993,5.18227 -2.24465,6.2627 l -0.91969,0.8914 z m 24.47724,-2.03568 4.23005,-2.74069 0.0814,-1.09957 c 0.0447,-0.60476 0.0163,-1.09957 -0.0633,-1.09957 -0.0796,0 -2.40813,1.3777 -5.17459,3.06157 -4.23065,2.57506 -5.02994,3.16019 -5.02994,3.68223 0,0.34136 -0.23813,1.17619 -0.52917,1.85516 -0.29104,0.67897 -0.52916,1.29102 -0.52916,1.3601 0,0.0691 0.62655,-0.41533 1.39235,-1.07647 0.76579,-0.66113 3.29587,-2.43538 5.62239,-3.94276 z m 9.7026,1.77795 c 1.08486,-0.24675 1.7376,-0.50956 1.5514,-0.62464 -0.23401,-0.14463 -0.20157,-0.24467 0.11925,-0.36778 0.69015,-0.26483 1.77058,-0.19988 1.58805,0.0955 -0.0899,0.14552 -0.0374,0.26459 0.11667,0.26459 0.33772,0 0.36062,-7.20754 0.0363,-11.41106 -0.22916,-2.96995 -0.89081,-4.92873 -2.28014,-6.75023 -0.90987,-1.1929 -0.82198,-1.25083 0.52177,-0.34395 2.4378,1.64526 3.21128,3.11123 3.61386,6.84938 0.46519,4.31951 1.37891,8.59584 1.85631,8.68778 0.23062,0.0444 1.09251,-0.17112 1.91531,-0.47897 1.49201,-0.55823 1.49597,-0.56266 1.49067,-1.66519 -0.003,-0.60801 -0.12369,-1.87938 -0.26837,-2.82526 -0.21398,-1.399 -0.5252,-6.67095 -0.52102,-8.82571 6.3e-4,-0.32141 -0.13214,-0.44025 -0.38391,-0.34364 -0.24005,0.0921 -0.69642,-0.24568 -1.21286,-0.89773 -0.70398,-0.88885 -0.75531,-1.04527 -0.34273,-1.04443 0.26689,5.4e-4 0.87508,0.23867 1.35154,0.52916 0.47646,0.2905 1.01337,0.52818 1.19313,0.52818 0.48859,0 0.95388,0.89407 1.12995,2.17126 0.0861,0.62482 0.38451,2.68384 0.66305,4.57562 0.27854,1.89177 0.53772,3.8563 0.57596,4.36562 0.0678,0.90236 0.0962,0.9244 1.11263,0.86191 0.57369,-0.0353 1.15617,-0.17722 1.29439,-0.31543 0.27184,-0.27185 0.27362,-2.19505 0.008,-9.08544 l -0.17081,-4.43793 -1.04619,-1.07803 c -1.86175,-1.9184 -6.34293,-4.62026 -9.17081,-5.52939 -1.39779,-0.44938 -2.72002,-0.93346 -2.9383,-1.07574 -0.21828,-0.14229 -1.38457,-0.73947 -2.59174,-1.32708 -1.61788,-0.78752 -2.38719,-1.02613 -2.92649,-0.90768 -0.53938,0.11847 -0.85983,0.019 -1.21957,-0.3785 -0.53156,-0.58736 -1.78944,-0.66876 -4.70543,-0.30448 -0.83674,0.10453 -1.52135,0.10056 -1.52135,-0.009 0,-0.10938 0.7739,-0.56822 1.71979,-1.01965 1.51044,-0.72087 1.71979,-0.91076 1.71979,-1.55999 0,-0.92631 -1.68511,-3.55683 -3.08331,-4.81316 -0.581,-0.52206 -2.2383,-1.64162 -3.68289,-2.48792 -4.96042,-2.90603 -4.76979,-2.71354 -4.96412,-5.01246 -0.41497,-4.90915 -3.10843,-9.38829 -7.33522,-12.19825 -1.0101,-0.67152 -1.85651,-1.42015 -1.88091,-1.66364 -0.0244,-0.24349 -0.066,-1.93098 -0.0925,-3.74999 -0.0835,-5.73926 -1.2419,-10.60185 -3.40652,-14.29914 -1.85371,-3.16625 -6.28333,-7.2501 -9.34877,-8.61903 -1.5239,-0.68053 -6.65231,-2.07559 -6.86141,-1.86648 -0.0725,0.0725 0.2941,1.44918 0.81463,3.05933 0.93719,2.89901 1.79361,6.59402 2.80782,12.11429 l 0.52449,2.85472 1.78403,1.81536 c 2.07549,2.11194 4.84394,4.28711 8.30592,6.52595 1.35226,0.8745 2.30057,1.59 2.10735,1.59 -0.19322,0 -1.38041,-0.17651 -2.6382,-0.39223 -3.64156,-0.62458 -8.29019,-1.23328 -8.42082,-1.10265 -0.19384,0.19384 0.91216,5.99817 1.52326,7.99414 1.44313,4.71351 4.44274,8.45386 8.24205,10.27737 1.12412,0.53953 2.76614,1.1283 3.64893,1.30837 l 1.60508,0.32741 -0.95363,0.45475 c -0.68287,0.32564 -0.91694,0.58517 -0.82442,0.91411 0.0711,0.25264 0.20629,0.84268 0.3005,1.31118 l 0.1713,0.85184 1.67421,-1.05736 c 0.92081,-0.58155 2.19207,-1.22298 2.82502,-1.4254 1.18511,-0.37901 3.39977,-0.71317 3.39977,-0.51297 0,0.062 -0.59593,0.8711 -1.32428,1.79791 -1.8693,2.37864 -2.69739,4.30353 -2.69739,6.27007 0,2.20023 0.39819,3.00973 1.81873,3.6974 1.4551,0.7044 4.44739,0.7625 6.87485,0.13349 2.25281,-0.58377 2.29234,-0.57068 1.7274,0.57184 -0.26984,0.5457 -0.64281,1.69838 -0.82884,2.56151 -0.30055,1.39452 -0.29009,1.60452 0.0939,1.88529 0.59431,0.43456 0.80404,3.20093 0.75706,9.98553 -0.035,5.05047 -0.001,5.49136 0.40826,5.36532 0.2455,-0.0755 1.27981,-0.38937 2.29845,-0.69742 1.01865,-0.30805 1.9908,-0.69837 2.16034,-0.8674 0.16954,-0.16902 0.35593,-1.28351 0.4142,-2.47665 0.10515,-2.15281 0.11505,-2.17905 1.30023,-3.44611 0.65686,-0.70223 1.40689,-1.60126 1.66675,-1.99785 0.25986,-0.3966 0.66713,-0.71926 0.90506,-0.71703 0.26603,0.002 0.32329,0.0789 0.1487,0.19844 -0.33081,0.22652 -0.70147,1.12043 -0.46458,1.12043 0.0885,0 0.3276,-0.20836 0.53126,-0.46302 0.322,-0.40264 0.35773,-0.10924 0.27401,2.2499 -0.0721,2.03206 -0.0155,2.69608 0.22563,2.64583 0.35679,-0.0744 1.96653,1.49309 1.96653,1.91488 0,0.14684 0.12608,0.26699 0.28019,0.26699 0.15411,0 0.21433,-0.10659 0.13382,-0.23686 -0.0805,-0.13027 0.0271,-0.30345 0.23923,-0.38484 0.48443,-0.18589 0.55858,0.21623 1.14522,6.21011 l 0.45632,4.66237 -0.86281,0.56558 c -0.92196,0.60437 -1.12333,1.08989 -0.45202,1.08989 0.22594,0 1.25358,-0.19169 2.28364,-0.42597 z m 2.79016,-0.52763 c -0.0879,-0.0879 -0.31612,-0.0973 -0.50711,-0.0209 -0.21107,0.0845 -0.14838,0.14716 0.15985,0.15985 0.27891,0.0115 0.43518,-0.051 0.34726,-0.13896 z M 77.522918,196.14384 c 4.050098,-0.79595 9.391775,-2.93911 13.926458,-5.58751 3.360223,-1.96247 3.3898,-2.254 0.09646,-0.95072 -1.67349,0.66225 -4.888177,1.89775 -7.14375,2.74555 -2.255573,0.84779 -4.696354,1.80252 -5.423958,2.12162 -0.727604,0.31909 -2.394479,0.98439 -3.704166,1.47844 -2.245108,0.8469 -2.305616,0.88924 -1.058334,0.74043 0.727604,-0.0868 2.215886,-0.33333 3.307292,-0.54781 z m 22.489582,-1.04781 c 4.99494,-1.28162 9.27007,-3.92509 12.84377,-7.94177 1.67284,-1.8802 4.35415,-5.6018 4.35415,-6.04347 0,-0.0679 -0.98227,0.9002 -2.18282,2.15124 -3.71705,3.8734 -9.14984,7.65392 -15.80885,11.00094 -3.769684,1.89476 -3.686077,1.9825 0.79375,0.83306 z M 72.152092,183.10331 c 6.758833,-2.19075 15.612673,-7.04413 23.2302,-12.73402 6.965698,-5.20301 10.879778,-9.20852 17.061308,-17.45983 3.88692,-5.18838 4.88496,-6.78911 7.98848,-12.81258 1.40344,-2.72386 2.32087,-4.249 2.32605,-3.86682 0.0137,1.01518 -1.28126,6.99351 -2.14695,9.91132 -1.134,3.8222 -3.41719,9.50059 -5.51748,13.72224 -4.09481,8.23068 -8.53988,13.68386 -15.959871,19.57942 -2.011238,1.59804 -3.593246,2.96907 -3.515574,3.04674 0.287829,0.28783 4.861625,-1.34748 7.575485,-2.70854 6.63931,-3.32974 10.78757,-7.13762 15.41705,-14.15207 4.35848,-6.60382 10.17219,-19.93303 13.04037,-29.89792 l 0.64732,-2.24896 -0.1373,4.10104 c -0.17728,5.29533 -0.39492,6.71847 -2.00289,13.09688 -1.45322,5.76454 -3.26804,11.31535 -4.9524,15.14739 -0.59165,1.34607 -1.03226,2.4474 -0.97911,2.4474 0.20387,0 4.61109,-6.03948 5.64679,-7.73814 2.62574,-4.30651 4.50773,-8.7364 6.02698,-14.18646 1.56397,-5.61051 1.50539,-11.05236 -0.21259,-19.74727 -0.89596,-4.53459 -4.67952,-14.95084 -5.42972,-14.9482 -0.11854,4.1e-4 -0.2293,1.45893 -0.24613,3.24114 -0.0432,4.57276 -0.68906,7.93707 -3.00944,15.67581 l -0.47599,1.5875 -0.0174,-2.38125 c -0.01,-1.30969 -0.28462,-4.34579 -0.61121,-6.74688 l -0.59379,-4.36562 -1.50857,1.4552 c -1.1928,1.15062 -1.59779,1.75981 -1.93484,2.91042 -1.7022,5.81091 -2.84334,8.72378 -5.44178,13.89063 -1.53685,3.05593 -3.47277,6.64104 -4.30205,7.96691 -4.69812,7.51143 -14.149547,18.04749 -23.084718,25.73388 -3.016172,2.59463 -10.942368,8.06971 -16.139582,11.14854 -2.623747,1.55431 -3.494833,2.1142 -3.289293,2.1142 0.07466,0 1.221562,-0.35194 2.548675,-0.7821 z m -5.065255,-9.58053 0.97125,-0.57305 -1.154563,-0.92256 c -0.63501,-0.5074 -2.157133,-1.94617 -3.382495,-3.19726 -1.924696,-1.9651 -2.201066,-2.16667 -2.030544,-1.48095 0.386758,1.55526 1.763086,4.064 2.959775,5.395 0.668495,0.74353 1.316669,1.35187 1.440387,1.35187 0.123717,0 0.662003,-0.25787 1.19619,-0.57305 z m -52.820232,-6.04153 c 1.549023,-3.99375 2.024317,-8.99422 1.180381,-12.41851 -0.57293,-2.32468 -1.760372,-4.8413 -3.940466,-8.35128 -2.1200211,-3.41327 -3.2874717,-5.85563 -4.1103003,-8.59896 -0.5635852,-1.879 -0.6071001,-1.94223 -0.8194876,-1.19062 -1.1201928,3.96416 -1.6079753,12.81586 -0.9218091,16.72789 0.7825973,4.46182 2.7118537,9.66087 5.509918,14.84838 l 1.333417,2.4721 0.499342,-0.75231 c 0.274638,-0.41378 0.845691,-1.64529 1.269005,-2.73669 z m 7.32807,-2.03555 c 0.384303,-2.20171 0.307141,-3.78528 -0.184444,-3.78528 -0.133958,0 -0.24356,0.60789 -0.24356,1.35087 0,0.74298 -0.168519,2.0229 -0.374485,2.84427 -0.205967,0.82137 -0.447288,2.02918 -0.536268,2.68402 l -0.161783,1.19063 0.553109,-1.0127 c 0.30421,-0.55698 0.730554,-2.02929 0.947431,-3.27181 z m 58.275897,0.61197 c 4.163019,-2.76534 8.3751,-5.93353 8.166251,-6.14238 -0.06194,-0.0619 -0.592258,0.0566 -1.178493,0.26346 -1.836461,0.64794 -6.231798,1.21708 -9.399204,1.21708 -4.627326,0 -9.217911,-1.35191 -13.4657,-3.9656 -0.707946,-0.4356 -1.287174,-0.68402 -1.287174,-0.55203 0,0.13198 0.623813,1.17268 1.386252,2.31265 2.079442,3.10913 4.387114,5.27893 7.609581,7.15493 1.527968,0.88954 3.01625,1.80278 3.307291,2.02945 0.291042,0.22666 0.57358,0.41589 0.627863,0.42052 0.05428,0.005 1.959283,-1.22751 4.233333,-2.73808 z m -49.490136,-6.92613 c 4.100696,-1.36648 8.539673,-3.97258 12.021473,-7.05777 2.950838,-2.61471 5.973194,-7.01618 6.43841,-9.37628 l 0.165375,-0.83897 -2.447616,-0.73456 c -2.14687,-0.64429 -2.369864,-0.76561 -1.814825,-0.98729 2.478814,-0.99002 7.069318,-3.20622 8.10999,-3.91533 0.689728,-0.46997 2.042009,-1.61031 3.005069,-2.53408 l 1.751019,-1.67957 0.554864,2.19251 c 0.305175,1.20588 0.900037,3.20454 1.321914,4.44147 l 0.767051,2.24896 0.439756,-1.45521 c 0.241865,-0.80037 0.693578,-2.64584 1.003807,-4.10104 0.747231,-3.50509 0.80562,-9.9954 0.121093,-13.46042 -0.607765,-3.07645 -1.635453,-6.22973 -2.279744,-6.99498 -1.26543,-1.503 -5.915662,-2.25366 -9.483117,-1.5308 -2.745523,0.55632 -4.107765,1.14768 -6.613805,2.87115 -4.166535,2.86542 -6.616003,6.03202 -7.418221,9.59005 -0.585466,2.59668 -1.140185,6.81008 -0.922514,7.00701 0.121805,0.1102 1.107553,0.46431 2.190551,0.78692 1.082998,0.32261 2.987998,1.03314 4.233333,1.57895 1.245335,0.54582 2.550987,1.10816 2.901449,1.24966 0.484173,0.19547 0.0076,0.2682 -1.984374,0.30283 -6.892591,0.11982 -9.916,0.94071 -14.419979,3.91519 -2.316297,1.52971 -5.060669,4.31037 -6.305422,6.3888 l -1.008881,1.68458 1.159446,1.76529 c 1.360724,2.07174 2.594183,5.12686 3.058856,7.5764 l 0.330705,1.74332 h 1.546656 c 0.953392,0 2.325713,-0.2596 3.577681,-0.67679 z m 62.152587,-5.96342 c 3.268468,-0.28076 3.40648,-0.31756 4.240033,-1.13059 0.811465,-0.79148 0.922517,-1.14022 1.9086,-5.99364 1.288252,-6.34067 1.860014,-10.67311 1.860014,-14.09401 0,-1.97125 0.0812,-2.58628 0.33073,-2.50499 1.14578,0.37322 1.85047,4.48403 1.88198,10.97841 0.0191,3.9352 0.10354,5.26702 0.3188,5.02708 3.67244,-4.09368 9.02058,-12.04248 11.25674,-16.73059 1.11405,-2.33561 2.35133,-5.98746 2.35133,-6.93999 0,-0.25491 -0.84645,-0.33536 -3.50573,-0.3332 l -3.50573,0.003 -2.24896,1.04985 c -1.23692,0.57742 -2.28828,0.93441 -2.33635,0.79331 -0.0481,-0.1411 0.27607,-0.69748 0.72029,-1.2364 0.44423,-0.53893 0.76538,-1.02217 0.71367,-1.07388 -0.0517,-0.0517 -0.88865,0.0444 -1.85988,0.21349 -2.07016,0.36051 -2.98131,1.01654 -4.04687,2.91376 -0.40232,0.71631 -0.791013,1.30159 -0.863773,1.30061 -0.07276,-9.7e-4 -0.390325,-0.44733 -0.7057,-0.99191 -0.315374,-0.54459 -1.677282,-2.35937 -3.026461,-4.03286 -3.561841,-4.41802 -5.737785,-7.88688 -8.87928,-14.15521 -1.531541,-3.05594 -2.723572,-5.25859 -2.648957,-4.89479 0.7768,3.78748 1.739398,7.94591 2.572331,11.1125 l 1.009134,3.83646 1.936863,1.82983 c 1.065274,1.00642 2.449071,2.15642 3.075105,2.55557 1.304832,0.83194 1.094781,1.17164 -0.552641,0.89374 -1.977614,-0.33361 -11.493318,-3.74609 -12.293414,-4.40862 -0.663952,-0.54979 -0.301217,0.10485 0.950199,1.71484 0.70451,0.90638 1.79139,2.42188 2.415289,3.36776 0.623898,0.94589 2.038984,2.64253 3.144635,3.77031 1.105651,1.12779 1.834474,2.05043 1.619607,2.05032 -0.684848,-3.7e-4 -3.75587,-1.57755 -6.07921,-3.12208 -1.236927,-0.8223 -3.40814,-2.64312 -4.824918,-4.04626 -2.008185,-1.98886 -2.53926,-2.39849 -2.409455,-1.8585 0.212432,0.88373 1.567748,5.29767 1.82665,5.94897 0.177371,0.4462 0.136826,0.46197 -0.420561,0.16367 -1.228526,-0.65749 -4.408872,-4.15729 -6.215323,-6.83963 l -1.847017,-2.74258 -0.167512,1.68424 c -0.09213,0.92634 -0.182492,4.00597 -0.200803,6.84362 -0.03712,5.75269 -0.383823,12.50228 -0.852426,16.59493 l -0.309638,2.7043 1.099386,1.45613 c 2.80001,3.70858 8.321618,7.14586 13.130993,8.17423 2.245931,0.48024 6.879236,0.54057 11.43823,0.14895 z m -99.9851161,-13.4563 c 0.2979663,-0.85475 1.4852709,-2.66817 4.4581077,-6.80905 1.0646115,-1.4829 1.9356572,-2.81961 1.9356572,-2.97046 0,-0.3609 -1.2365134,-1.16486 -1.5210854,-0.98898 -0.1217917,0.0753 -1.6251999,2.09472 -3.3409069,4.48766 l -3.1194675,4.3508 -0.970207,-0.22042 c -0.533614,-0.12124 -1.674352,-0.46385 -2.534974,-0.76138 -0.860621,-0.29752 -1.60572,-0.49999 -1.655775,-0.44993 -0.213298,0.21329 5.3892435,4.14362 5.9066375,4.14365 0.3929257,3e-5 0.6539213,-0.24233 0.8420134,-0.78189 z M 6.6089767,124.48936 c 1.9363008,-1.0013 1.1323537,-2.48146 -2.754723,-5.07175 -3.35141844,-2.23334 -4.64799853,-3.40755 -4.64799853,-4.20931 0,-0.53363 0.08162,-0.56009 1.12447911,-0.36449 0.6184635,0.116 1.42461322,0.32543 1.79144382,0.4654 1.0957825,0.41813 5.8775372,3.2418 6.8677977,4.05551 0.5060988,0.41586 1.0655862,0.75611 1.2433062,0.75611 0.612851,0 1.744621,-1.79517 1.570114,-2.49046 -0.24185,-0.96361 -1.388641,-2.19658 -2.7692984,-2.9774 -4.1098235,-2.3243 -5.8243896,-3.76979 -6.3539696,-5.35681 -0.1656925,-0.49654 -0.2662589,-0.9378 -0.2234809,-0.98058 0.2062267,-0.20622 4.3889319,1.86287 7.4455992,3.68318 1.8809727,1.12016 3.6123417,2.03666 3.8474867,2.03666 0.25652,0 0.719742,-0.5958 1.158043,-1.48948 l 0.730506,-1.48947 -0.594251,-0.63255 c -0.326838,-0.3479 -2.300251,-1.77394 -4.385363,-3.16898 -2.0851119,-1.39504 -3.9075614,-2.75402 -4.0498879,-3.01996 -0.3391475,-0.6337 -0.3317207,-1.57664 0.012418,-1.57664 0.85176,0 3.5314139,1.24358 5.9466359,2.75974 3.925992,2.46454 5.181209,2.31877 6.079477,-0.70602 0.556916,-1.87534 0.973168,-1.56778 -7.137931,-5.274137 -3.8486318,-1.758627 -4.3859109,-1.934125 -5.912324,-1.931218 -1.6076084,0.0031 -1.7185946,0.04641 -2.6105316,1.019686 -0.9727457,1.061449 -1.0014197,1.290587 -0.4544839,3.631849 0.1273644,0.54521 0.049644,0.71974 -0.3692993,0.82929 -0.2918369,0.0763 -0.648754,0.0206 -0.7931491,-0.12377 -0.1736598,-0.17366 -0.59294434,-0.1535 -1.23854169,0.0596 -1.21836751,0.4021 -1.71854521,1.47125 -1.71854521,3.67347 0,1.5565 -0.011156,1.57966 -0.9921874,2.05902 -0.7972763,0.38957 -1.0082956,0.65133 -1.0741851,1.33248 -0.045099,0.46622 0.04452,1.08407 0.199153,1.373 0.1765,0.3298 0.1867016,0.58371 0.027407,0.68216 -0.1395589,0.0863 -0.1908014,0.32085 -0.1138721,0.52132 0.082601,0.21526 -0.087517,0.43667 -0.4154793,0.54076 -0.9027911,0.28654 -1.2703699,1.19024 -1.4596879,3.58868 -0.1552669,1.96706 -0.1156623,2.33622 0.3038005,2.8318 1.0514874,1.24229 8.9869365,5.34684 10.3512108,5.35408 0.3346484,0.002 0.9512887,-0.17405 1.3703118,-0.39074 z M 112.9683,114.62266 c 2.36841,-1.61141 3.63495,-4.10695 3.74831,-7.38556 0.0261,-0.75589 0.12769,-1.50407 0.22567,-1.6626 0.39086,-0.63243 1.01337,0.10516 1.44995,1.71802 0.61777,2.28222 0.58399,4.42349 -0.098,6.21373 -0.3049,0.80037 -0.55443,1.5519 -0.5545,1.67009 -2.1e-4,0.33502 2.40396,-1.46703 2.8406,-2.12918 0.21449,-0.32526 0.62297,-1.63495 0.90774,-2.91042 0.42842,-1.91883 0.47115,-2.59299 0.24764,-3.90653 -0.14857,-0.87312 -0.34005,-2.24736 -0.4255,-3.05385 -0.21405,-2.02021 -1.34176,-4.191613 -2.51228,-4.837407 -1.10141,-0.607659 -4.35683,-1.40163 -5.29167,-1.290593 -0.3638,0.04321 -1.43537,0.45993 -2.38125,0.926042 -1.36042,0.670383 -1.87601,1.10397 -2.46735,2.074928 -0.65063,1.0683 -0.7462,1.48764 -0.73709,3.23397 0.0116,2.22721 0.73127,5.24353 1.10626,4.63679 0.59165,-0.95731 1.75525,2.22581 2.00596,5.48747 0.0937,1.21845 0.24202,2.21173 0.32969,2.20729 0.0877,-0.004 0.8103,-0.45093 1.60583,-0.99219 z m -92.654251,-0.20537 c 0.404844,-0.28356 0.588038,-0.68279 0.588038,-1.2815 0,-0.47829 0.238125,-1.56174 0.529167,-2.40766 0.291042,-0.84593 0.529167,-1.83265 0.529167,-2.19271 0,-0.60407 -0.07372,-0.64269 -0.954027,-0.49984 -1.577105,0.25593 -2.151088,0.8133 -2.703546,2.62531 -0.896351,2.93995 -0.933529,3.51362 -0.249095,3.84354 0.858291,0.41373 1.585216,0.3857 2.260296,-0.0871 z m 86.989181,-3.42338 c -1.22056,-2.08273 -1.52066,-3.55379 -1.33993,-6.56819 0.29371,-4.898999 0.64224,-5.92474 2.74425,-8.076613 1.38181,-1.414579 6.7455,-4.274104 8.01707,-4.274104 1.80888,0 4.52646,2.570529 5.84007,5.524069 l 0.54386,1.222805 0.25236,-0.992788 c 0.18605,-0.731937 0.13747,-1.509172 -0.18489,-2.95813 -0.46406,-2.085868 -1.15499,-3.343781 -2.30405,-4.194779 -0.60005,-0.444405 -0.82978,-0.477611 -1.55506,-0.224779 -0.71241,0.248349 -1.00707,0.213358 -1.80947,-0.214878 -0.52717,-0.281345 -1.61506,-0.692334 -2.41755,-0.913311 -3.06533,-0.844084 -4.3434,-3.702888 -2.26443,-5.065084 0.57716,-0.37817 0.77238,-0.389021 1.46702,-0.08154 0.8554,0.378637 1.0569,0.754666 0.40439,0.754666 -0.21828,0 -0.39687,0.131702 -0.39687,0.292672 0,0.205882 0.69842,0.237394 2.35522,0.106263 2.23728,-0.177074 2.38604,-0.155595 2.97055,0.428919 0.79245,0.792451 2.48785,0.855111 3.0312,0.11203 0.65856,-0.900637 -0.0841,-5.777154 -1.1242,-7.381817 -0.82862,-1.278389 -1.0162,-2.398721 -0.63725,-3.806042 0.38013,-1.41166 1.26635,-2.093879 3.21907,-2.478054 0.85937,-0.169071 1.56249,-0.409259 1.56249,-0.533752 0,-0.470549 -3.33892,-1.88423 -6.17768,-2.615601 -4.02336,-1.036565 -7.47656,-1.413577 -11.6271,-1.269417 -4.06016,0.14102 -5.28071,0.542791 -7.06279,2.324877 -2.108294,2.10829 -2.559826,4.087743 -1.552596,6.806351 0.544011,1.468339 2.278696,3.56853 3.489146,4.224336 0.45927,0.248827 0.45032,0.313071 -0.17132,1.229102 -0.36075,0.531604 -0.80417,1.584534 -0.98537,2.339846 -0.32273,1.345295 -0.31489,1.385816 0.38451,1.987416 0.39268,0.337766 0.85615,0.615972 1.02994,0.618235 0.17378,0.0023 0.60729,0.597575 0.96335,1.322916 0.35605,0.725342 0.70092,1.318803 0.76636,1.318803 0.17774,0 2.9182,-1.82418 4.2467,-2.826805 0.63939,-0.482549 1.26689,-0.877361 1.39444,-0.877361 0.41381,0 -0.82935,2.106992 -2.3128,3.919905 -1.82995,2.236368 -3.70507,5.984366 -4.19411,8.383219 -0.6422,3.150086 -0.1585,7.114516 1.29369,10.603066 0.41354,0.99341 2.49862,3.4011 2.73805,3.16167 0.0631,-0.0631 -0.20519,-0.66079 -0.59627,-1.32812 z m 6.02797,-29.125228 c 0.41305,-0.230133 0.81985,-0.349575 0.904,-0.265427 0.21653,0.216536 0.0445,0.319103 -0.86124,0.513496 l -0.79375,0.170355 z m 1.36173,-0.383392 c -0.0823,-0.133204 0.2573,-0.412238 0.75473,-0.620075 1.24881,-0.521788 1.39473,-0.88706 0.666,-1.667229 -0.8971,-0.960423 -1.73439,-1.319892 -3.53345,-1.516998 -2.50748,-0.274721 -4.98826,-0.933821 -6.11077,-1.623521 -1.24381,-0.764236 -0.70358,-0.856555 0.80171,-0.137003 0.59165,0.282815 1.43291,0.550706 1.86947,0.595312 0.76317,0.07798 0.79375,0.04033 0.79375,-0.977231 v -1.058333 l -1.32291,0.0316 c -0.72761,0.01738 -1.82893,0.122353 -2.4474,0.233275 -0.77929,0.139766 -1.12448,0.109761 -1.12448,-0.09775 0,-0.164681 0.15584,-0.299421 0.34631,-0.299421 0.19047,0 0.57742,-0.18743 0.85989,-0.416512 0.50071,-0.406064 0.49865,-0.41332 -0.0821,-0.289258 -0.32763,0.06999 -0.52896,0.01929 -0.44741,-0.112654 0.0815,-0.13195 0.64726,-0.243696 1.25714,-0.248324 1.05085,-0.008 1.08118,-0.02966 0.57969,-0.414477 -0.42422,-0.325533 -0.94267,-0.370269 -2.61421,-0.225575 -1.50644,0.130403 -2.03442,0.09858 -1.90261,-0.114689 0.10034,-0.162348 0.31783,-0.295177 0.48332,-0.295177 0.16549,0 0.73328,-0.299643 1.26175,-0.665873 2.2153,-1.535203 4.71058,-1.498896 8.85717,0.128874 2.32993,0.914626 3.21545,1.751264 3.39998,3.212269 0.0623,0.493133 0.4241,1.702994 0.80403,2.688582 0.63674,1.651785 0.87273,2.838231 0.56453,2.838231 -0.0694,0 -0.89985,0.291181 -1.84536,0.64707 -0.94872,0.357097 -1.78619,0.538538 -1.86879,0.404883 z m -1.86978,-5.181302 c 0.48817,-0.187328 0.55879,-1.044391 0.10897,-1.322398 -0.21254,-0.131357 -0.25256,-0.0428 -0.1277,0.282585 0.11753,0.306269 0.0165,0.59941 -0.28576,0.828739 -0.50202,0.38095 -0.37238,0.470815 0.30449,0.211074 z M 99.350951,101.26927 c 0.101287,-0.9095 0.589227,-2.875813 1.084309,-4.369576 1.14582,-3.457147 1.14071,-3.95603 -0.0553,-5.394971 -0.52547,-0.632231 -1.043382,-1.183243 -1.150913,-1.22447 -0.339679,-0.130231 -0.721815,0.545726 -1.434864,2.538122 -0.895093,2.501059 -0.946659,5.395578 -0.13892,7.797785 0.952158,2.83171 1.432418,3.01669 1.695638,0.65311 z m -5.404817,-8.751237 c 0.535392,-2.115064 1.191929,-3.453858 1.577035,-3.215849 0.118407,0.07318 0.295307,0.497389 0.393111,0.942689 0.0978,0.445299 0.244838,0.742623 0.326741,0.660719 0.0819,-0.0819 0.308699,-0.01631 0.503989,0.14577 0.270119,0.224178 0.355073,0.200024 0.355073,-0.100954 0,-0.217601 0.242249,-0.943282 0.538331,-1.612625 l 0.538331,-1.216986 -1.092111,-2.851543 c -0.768042,-2.005387 -1.13003,-3.401123 -1.219896,-4.703626 -0.07028,-1.018646 -0.190542,-2.030677 -0.267247,-2.248958 -0.239921,-0.682754 -0.865556,1.836558 -1.149846,4.630208 -0.148086,1.455208 -0.451035,3.538802 -0.673219,4.630208 -1.076606,5.288456 -1.195719,6.343213 -0.846293,7.494029 0.325702,1.072686 0.337774,1.081766 0.41369,0.311179 0.04301,-0.436562 0.314049,-1.72548 0.602311,-2.864261 z m 0.590939,-13.306467 c 0.590871,-1.166409 0.642095,-1.522863 0.527832,-3.673021 -0.101989,-1.919203 -0.02138,-2.712747 0.415459,-4.089685 0.298101,-0.939639 0.477442,-1.772994 0.398536,-1.851901 -0.07891,-0.07891 -0.484389,0.238093 -0.901072,0.704443 -1.041749,1.165919 -1.831628,3.891771 -2.130939,7.35381 -0.138391,1.600729 -0.361583,3.505729 -0.495982,4.233333 -0.134399,0.727604 -0.243005,1.918229 -0.241345,2.645833 0.003,1.320101 0.0049,1.317219 0.888076,-1.354062 0.486783,-1.472339 1.179528,-3.258276 1.539435,-3.96875 z m -52.843259,2.147812 c 2.012869,-3.020457 3.5471,-4.495864 5.356177,-5.150812 3.334516,-1.207209 3.306159,-1.093365 0.525321,-2.10901 C 46.220194,73.604627 44.754274,73.055246 44.317711,72.87871 43.396952,72.506376 32.535034,64.406595 28.839587,61.336604 27.457139,60.188136 25.9065,58.957393 25.393722,58.601619 24.279936,57.828857 15.32584,53.814371 15.884099,54.338068 c 1.399455,1.312813 6.033346,4.987723 9.515905,7.546592 5.436516,3.994572 10.940115,8.153591 13.984346,10.567839 3.608058,2.861396 3.880042,3.870098 2.044248,7.581469 -1.058979,2.140907 -2.272305,4.887268 -2.265804,5.128645 0.0025,0.09103 0.255555,-0.251204 0.562453,-0.760527 0.306898,-0.509323 1.192753,-1.878541 1.968567,-3.042708 z m 46.403825,1.333293 c 0.176421,-0.212574 0.382877,-0.849581 0.458793,-1.415572 0.153856,-1.147083 -0.342785,-1.590625 -1.242119,-1.109316 -0.409569,0.219195 -0.668642,0.03635 -1.594596,-1.125428 -0.9893,-1.241255 -1.092498,-1.503811 -0.981232,-2.496443 0.09098,-0.811621 0.02121,-1.148874 -0.259961,-1.256771 -0.798756,-0.306511 -1.300027,-0.122479 -1.752425,0.64337 -0.628574,1.06409 -0.321547,2.111601 1.274463,4.348209 1.876772,2.63006 3.246731,3.436556 4.097077,2.411951 z M 127.09708,65.909859 c -0.48428,-1.011903 -0.74543,-2.158961 -0.93135,-4.090838 -0.38447,-3.99499 -0.46023,-4.34437 -1.09575,-5.05292 -1.33869,-1.492518 -6.37065,-2.420934 -11.81623,-2.180136 -6.53704,0.289062 -11.61485,1.488776 -18.136042,4.284928 -4.231989,1.814589 -5.389675,2.680021 -4.815322,3.599707 0.447789,0.717025 0.751781,0.643554 3.010548,-0.72761 2.848843,-1.729364 5.978746,-3.149635 8.291866,-3.762642 2.5561,-0.677398 11.32224,-1.056116 12.56291,-0.542747 0.43656,0.180642 1.1039,0.350725 1.48297,0.377963 0.37908,0.02724 0.84592,0.146362 1.03743,0.26472 0.51266,0.316841 -0.71778,0.719487 -1.28334,0.419955 -0.75399,-0.399335 -5.89405,-0.827348 -7.98394,-0.664822 -2.18855,0.170199 -2.80548,0.372921 -1.13488,0.372921 1.3959,0 5.21127,0.880185 4.30988,0.994268 -5.24173,0.663409 -13.073854,3.471259 -14.77202,5.295835 l -0.616815,0.66273 1.145982,-0.14333 c 0.63029,-0.07883 2.277075,-0.361168 3.659523,-0.627413 3.08322,-0.593797 12.64238,-0.672582 16.89408,-0.139238 2.91002,0.36504 6.8994,1.44228 9.29967,2.51116 0.80036,0.356416 1.47964,0.626806 1.50951,0.600867 0.0299,-0.02594 -0.24854,-0.679951 -0.61868,-1.453358 z m -14.45073,-7.347583 c 0.1819,-0.0734 0.47956,-0.0734 0.66146,0 0.1819,0.0734 0.0331,0.133452 -0.33073,0.133452 -0.3638,0 -0.51263,-0.06005 -0.33073,-0.133452 z m -34.470596,5.213903 c 1.137741,-6.896373 3.546153,-11.24687 8.136425,-14.69744 4.916508,-3.695806 12.756865,-5.638013 18.703741,-4.633276 l 1.9607,0.331266 -2.093,1.087838 c -2.57312,1.337384 -5.494806,4.147458 -6.437341,6.191439 -0.352099,0.763561 -0.564165,1.464308 -0.471258,1.557214 0.191953,0.191953 6.142659,-0.712094 10.107269,-1.535522 1.70981,-0.355119 4.21779,-0.608127 7.08925,-0.715172 l 4.44341,-0.165646 -1.27482,-1.58109 c -4.26642,-5.291394 -11.49357,-8.059697 -19.007214,-7.280572 -5.56582,0.577146 -9.837805,2.1548 -13.687369,5.054778 -3.454751,2.602554 -6.557521,7.112669 -7.463324,10.848515 -0.384142,1.584335 -0.88946,8.724881 -0.597029,8.436493 0.07378,-0.07276 0.339533,-1.377232 0.59056,-2.898825 z m 9.40133,-22.016651 c 3.253226,-2.283897 6.880562,-3.949106 10.554582,-4.845314 2.517554,-0.61411 6.718044,-0.436678 9.391244,0.396695 3.32969,1.038036 8.17605,3.405548 10.23596,5.000405 l 0.68074,0.527057 0.58098,-1.195819 c 0.31953,-0.6577 0.51219,-1.307113 0.42812,-1.443141 -0.0841,-0.136027 -0.0197,-0.247322 0.14296,-0.247322 0.16269,0 0.23206,-0.103151 0.15414,-0.229223 -0.0779,-0.126072 0.0981,-0.446191 0.39111,-0.711375 0.60981,-0.551877 5.63732,-7.529334 5.49899,-7.631815 -0.27327,-0.202451 -1.83907,-0.743798 -1.90168,-0.657471 -2.06869,2.852232 -4.37499,6.136653 -5.45934,7.774675 -0.77066,1.164167 -1.49833,2.224071 -1.61704,2.355342 -0.12181,0.134703 -0.91539,-0.408993 -1.82171,-1.248085 -1.77776,-1.645895 -5.45463,-3.606139 -8.07677,-4.305947 -2.48507,-0.663229 -6.55183,-0.784721 -8.840772,-0.264113 -4.517611,1.027509 -9.068976,3.447255 -11.832237,6.290643 -1.498126,1.541567 -3.53636,4.204211 -3.53636,4.619718 0,0.09732 0.74414,-0.532816 1.653646,-1.400301 0.909505,-0.867485 2.427551,-2.120559 3.373437,-2.784609 z"
       id="path2" /><ellipse
       style="fill:none;stroke:#000000;stroke-width:14.2842;stroke-miterlimit:2.4;stroke-dasharray:none"
       id="path1"
       cx="99.392914"
       cy="149.31818"
       rx="144.39922"
       ry="144.3988" /><rect
       style="fill:#000000;stroke:#000000;stroke-width:9.91326;stroke-miterlimit:2.4;stroke-dasharray:none"
       id="rect1"
       width="112.64238"
       height="21.751614"
       x="42.432281"
       y="260.55185" /></g></svg>
